<svg xmlns="http://www.w3.org/2000/svg" xmlns:xlink="http://www.w3.org/1999/xlink" viewBox="82 164 255 55" preserveAspectRatio="xMidYMid meet" version="1.0"><defs><g/><clipPath id="8e3336c17f"><path d="M 85.222656 177 L 124 177 L 124 209.648438 L 85.222656 209.648438 Z M 85.222656 177 " clip-rule="nonzero"/></clipPath><clipPath id="66690503b4"><path d="M 92 168.398438 L 105 168.398438 L 105 175 L 92 175 Z M 92 168.398438 " clip-rule="nonzero"/></clipPath><clipPath id="70d7a5499e"><path d="M 97 168.398438 L 132.472656 168.398438 L 132.472656 209.648438 L 97 209.648438 Z M 97 168.398438 " clip-rule="nonzero"/></clipPath><clipPath id="0126e7742a"><path d="M 0.160156 1 L 9 1 L 9 11 L 0.160156 11 Z M 0.160156 1 " clip-rule="nonzero"/></clipPath><clipPath id="534900da57"><path d="M 17 0.199219 L 22 0.199219 L 22 11 L 17 11 Z M 17 0.199219 " clip-rule="nonzero"/></clipPath><clipPath id="349d53eb12"><rect x="0" width="152" y="0" height="15"/></clipPath></defs><rect x="-37.5" width="450" fill="#ffffff" y="-37.499999" height="449.999989" fill-opacity="1"/><rect x="-37.5" width="450" fill="#ffffff" y="-37.499999" height="449.999989" fill-opacity="1"/><g clip-path="url(#8e3336c17f)"><path fill="#042d62" d="M 123.652344 183.503906 L 113.507812 177.648438 L 113.507812 180.414062 L 96.011719 180.414062 L 85.222656 209.929688 L 91.808594 209.929688 L 100.335938 186.59375 L 113.507812 186.59375 L 113.507812 189.363281 Z M 123.652344 183.503906 " fill-opacity="1" fill-rule="nonzero"/></g><g clip-path="url(#66690503b4)"><path fill="#c5202b" d="M 104.015625 168.417969 L 95.097656 168.417969 L 92.835938 174.601562 L 101.757812 174.601562 Z M 104.015625 168.417969 " fill-opacity="1" fill-rule="nonzero"/></g><g clip-path="url(#70d7a5499e)"><path fill="#c5202b" d="M 117.570312 192.40625 L 104.15625 192.40625 L 97.753906 209.929688 L 104.335938 209.929688 L 108.480469 198.589844 L 117.570312 198.589844 C 125.886719 198.589844 132.652344 191.820312 132.652344 183.503906 C 132.652344 175.1875 125.886719 168.417969 117.570312 168.417969 L 107.238281 168.417969 L 104.976562 174.601562 L 117.570312 174.601562 C 122.476562 174.601562 126.472656 178.597656 126.472656 183.503906 C 126.472656 188.414062 122.476562 192.40625 117.570312 192.40625 Z M 117.570312 192.40625 " fill-opacity="1" fill-rule="nonzero"/></g><g fill="#c5202b" fill-opacity="1"><g transform="translate(139.218173, 189.79654)"><g><path d="M 1.859375 0 C 1.492188 0 1.3125 -0.203125 1.3125 -0.609375 L 1.3125 -21.625 C 1.3125 -22.039062 1.492188 -22.25 1.859375 -22.25 L 7.546875 -22.25 C 8.367188 -22.25 9.132812 -22.097656 9.84375 -21.796875 C 10.550781 -21.503906 11.164062 -21.09375 11.6875 -20.5625 C 12.207031 -20.039062 12.613281 -19.429688 12.90625 -18.734375 C 13.195312 -18.035156 13.34375 -17.285156 13.34375 -16.484375 L 13.34375 -11.328125 C 13.34375 -10.523438 13.195312 -9.769531 12.90625 -9.0625 C 12.613281 -8.351562 12.207031 -7.734375 11.6875 -7.203125 C 11.164062 -6.671875 10.550781 -6.253906 9.84375 -5.953125 C 9.132812 -5.660156 8.367188 -5.515625 7.546875 -5.515625 L 5.59375 -5.515625 L 5.59375 -0.609375 C 5.59375 -0.203125 5.414062 0 5.0625 0 Z M 5.59375 -9.390625 L 7.21875 -9.390625 C 7.769531 -9.390625 8.210938 -9.570312 8.546875 -9.9375 C 8.878906 -10.300781 9.046875 -10.753906 9.046875 -11.296875 L 9.046875 -16.390625 C 9.046875 -16.972656 8.875 -17.441406 8.53125 -17.796875 C 8.195312 -18.160156 7.753906 -18.34375 7.203125 -18.34375 L 5.59375 -18.34375 Z M 5.59375 -9.390625 "/></g></g></g><g fill="#c5202b" fill-opacity="1"><g transform="translate(153.089373, 189.79654)"><g><path d="M 0.9375 -0.5625 L 0.9375 -11.140625 C 0.9375 -12.160156 1.101562 -13.023438 1.4375 -13.734375 C 1.769531 -14.453125 2.210938 -15.03125 2.765625 -15.46875 C 3.328125 -15.914062 3.941406 -16.242188 4.609375 -16.453125 C 5.273438 -16.660156 5.929688 -16.765625 6.578125 -16.765625 C 6.941406 -16.765625 7.265625 -16.753906 7.546875 -16.734375 C 7.828125 -16.722656 8.085938 -16.691406 8.328125 -16.640625 C 8.640625 -16.554688 8.796875 -16.347656 8.796875 -16.015625 L 8.796875 -13.703125 C 8.796875 -13.484375 8.71875 -13.320312 8.5625 -13.21875 C 8.40625 -13.125 8.226562 -13.078125 8.03125 -13.078125 L 7.21875 -13.078125 C 6.550781 -13.078125 6.015625 -12.851562 5.609375 -12.40625 C 5.203125 -11.96875 5 -11.363281 5 -10.59375 L 5 -0.75 C 5 -0.476562 4.914062 -0.285156 4.75 -0.171875 C 4.582031 -0.0546875 4.425781 0 4.28125 0 L 1.421875 0 C 1.273438 0 1.15625 -0.046875 1.0625 -0.140625 C 0.976562 -0.242188 0.9375 -0.382812 0.9375 -0.5625 Z M 0.9375 -0.5625 "/></g></g></g><g fill="#c5202b" fill-opacity="1"><g transform="translate(162.202897, 189.79654)"><g><path d="M 1.671875 -16.46875 L 4.609375 -16.46875 C 4.773438 -16.46875 4.914062 -16.414062 5.03125 -16.3125 C 5.15625 -16.21875 5.21875 -16.101562 5.21875 -15.96875 L 5.21875 -0.53125 C 5.21875 -0.351562 5.160156 -0.21875 5.046875 -0.125 C 4.941406 -0.0390625 4.796875 0 4.609375 0 L 1.671875 0 C 1.304688 0 1.125 -0.175781 1.125 -0.53125 L 1.125 -15.96875 C 1.125 -16.113281 1.179688 -16.234375 1.296875 -16.328125 C 1.410156 -16.421875 1.535156 -16.46875 1.671875 -16.46875 Z M 5.328125 -20.6875 L 5.328125 -18.46875 C 5.328125 -18.164062 5.25 -17.957031 5.09375 -17.84375 C 4.945312 -17.738281 4.742188 -17.6875 4.484375 -17.6875 L 1.875 -17.6875 C 1.613281 -17.6875 1.394531 -17.738281 1.21875 -17.84375 C 1.050781 -17.945312 0.96875 -18.148438 0.96875 -18.453125 L 0.96875 -20.703125 C 0.96875 -20.953125 1.03125 -21.15625 1.15625 -21.3125 C 1.289062 -21.476562 1.53125 -21.5625 1.875 -21.5625 L 4.484375 -21.5625 C 4.785156 -21.5625 5 -21.484375 5.125 -21.328125 C 5.257812 -21.179688 5.328125 -20.96875 5.328125 -20.6875 Z M 5.328125 -20.6875 "/></g></g></g><g fill="#c5202b" fill-opacity="1"><g transform="translate(168.551827, 189.79654)"><g><path d="M 1.078125 -15.921875 C 1.078125 -16.097656 1.125 -16.234375 1.21875 -16.328125 C 1.3125 -16.421875 1.429688 -16.46875 1.578125 -16.46875 L 3.5 -16.46875 C 3.707031 -16.46875 3.867188 -16.425781 3.984375 -16.34375 C 4.097656 -16.269531 4.179688 -16.132812 4.234375 -15.9375 L 4.359375 -15.484375 C 4.785156 -15.867188 5.257812 -16.175781 5.78125 -16.40625 C 6.3125 -16.644531 6.878906 -16.765625 7.484375 -16.765625 C 7.765625 -16.765625 8.09375 -16.734375 8.46875 -16.671875 C 8.851562 -16.609375 9.238281 -16.472656 9.625 -16.265625 C 10.019531 -16.054688 10.378906 -15.722656 10.703125 -15.265625 C 11.171875 -15.742188 11.695312 -16.113281 12.28125 -16.375 C 12.875 -16.632812 13.5 -16.765625 14.15625 -16.765625 C 14.34375 -16.765625 14.601562 -16.742188 14.9375 -16.703125 C 15.28125 -16.660156 15.644531 -16.554688 16.03125 -16.390625 C 16.425781 -16.222656 16.804688 -15.953125 17.171875 -15.578125 C 17.535156 -15.210938 17.832031 -14.703125 18.0625 -14.046875 C 18.289062 -13.398438 18.40625 -12.570312 18.40625 -11.5625 L 18.40625 -0.546875 C 18.40625 -0.179688 18.242188 0 17.921875 0 L 14.796875 0 C 14.492188 0 14.34375 -0.179688 14.34375 -0.546875 L 14.34375 -11.703125 C 14.34375 -11.941406 14.304688 -12.175781 14.234375 -12.40625 C 14.160156 -12.632812 14.035156 -12.820312 13.859375 -12.96875 C 13.691406 -13.125 13.453125 -13.203125 13.140625 -13.203125 C 12.773438 -13.203125 12.460938 -13.070312 12.203125 -12.8125 C 11.941406 -12.5625 11.800781 -12.207031 11.78125 -11.75 L 11.78125 -0.546875 C 11.78125 -0.378906 11.734375 -0.242188 11.640625 -0.140625 C 11.554688 -0.046875 11.441406 0 11.296875 0 L 8.1875 0 C 7.875 0 7.71875 -0.179688 7.71875 -0.546875 L 7.71875 -11.796875 C 7.707031 -12.140625 7.613281 -12.457031 7.4375 -12.75 C 7.257812 -13.050781 6.96875 -13.203125 6.5625 -13.203125 C 6.175781 -13.203125 5.847656 -13.054688 5.578125 -12.765625 C 5.316406 -12.472656 5.175781 -12.101562 5.15625 -11.65625 L 5.15625 -0.671875 C 5.15625 -0.441406 5.082031 -0.269531 4.9375 -0.15625 C 4.789062 -0.0507812 4.644531 0 4.5 0 L 1.5625 0 C 1.425781 0 1.3125 -0.046875 1.21875 -0.140625 C 1.125 -0.242188 1.078125 -0.382812 1.078125 -0.5625 Z M 1.078125 -15.921875 "/></g></g></g><g fill="#c5202b" fill-opacity="1"><g transform="translate(187.936138, 189.79654)"><g><path d="M 0.859375 -4.578125 L 0.859375 -11.890625 C 0.859375 -12.566406 1 -13.195312 1.28125 -13.78125 C 1.5625 -14.363281 1.953125 -14.878906 2.453125 -15.328125 C 2.953125 -15.785156 3.53125 -16.140625 4.1875 -16.390625 C 4.851562 -16.640625 5.5625 -16.765625 6.3125 -16.765625 C 7.082031 -16.765625 7.785156 -16.640625 8.421875 -16.390625 C 9.066406 -16.140625 9.617188 -15.785156 10.078125 -15.328125 C 10.546875 -14.878906 10.90625 -14.363281 11.15625 -13.78125 C 11.414062 -13.195312 11.546875 -12.566406 11.546875 -11.890625 L 11.546875 -7.90625 C 11.546875 -7.726562 11.484375 -7.582031 11.359375 -7.46875 C 11.242188 -7.363281 11.097656 -7.3125 10.921875 -7.3125 L 4.921875 -7.3125 L 4.921875 -4.578125 C 4.921875 -4.222656 5.054688 -3.898438 5.328125 -3.609375 C 5.609375 -3.316406 5.96875 -3.171875 6.40625 -3.171875 C 6.875 -3.171875 7.226562 -3.320312 7.46875 -3.625 C 7.71875 -3.925781 7.84375 -4.253906 7.84375 -4.609375 L 7.84375 -5.078125 C 7.84375 -5.171875 7.878906 -5.257812 7.953125 -5.34375 C 8.023438 -5.425781 8.140625 -5.46875 8.296875 -5.46875 L 11.09375 -5.46875 C 11.21875 -5.46875 11.316406 -5.4375 11.390625 -5.375 C 11.472656 -5.3125 11.515625 -5.203125 11.515625 -5.046875 L 11.515625 -4.578125 C 11.515625 -3.679688 11.296875 -2.863281 10.859375 -2.125 C 10.421875 -1.382812 9.8125 -0.789062 9.03125 -0.34375 C 8.25 0.09375 7.34375 0.3125 6.3125 0.3125 C 5.5625 0.3125 4.851562 0.1875 4.1875 -0.0625 C 3.53125 -0.320312 2.953125 -0.671875 2.453125 -1.109375 C 1.953125 -1.554688 1.5625 -2.078125 1.28125 -2.671875 C 1 -3.265625 0.859375 -3.898438 0.859375 -4.578125 Z M 4.921875 -11.859375 L 4.921875 -10.0625 L 7.84375 -10.0625 L 7.84375 -11.84375 C 7.84375 -12.21875 7.710938 -12.550781 7.453125 -12.84375 C 7.203125 -13.132812 6.851562 -13.28125 6.40625 -13.28125 C 5.96875 -13.28125 5.609375 -13.132812 5.328125 -12.84375 C 5.054688 -12.550781 4.921875 -12.222656 4.921875 -11.859375 Z M 4.921875 -11.859375 "/></g></g></g><g fill="#c5202b" fill-opacity="1"><g transform="translate(200.264308, 189.79654)"><g/></g></g><g fill="#c5202b" fill-opacity="1"><g transform="translate(207.722285, 189.79654)"><g><path d="M 4.828125 -6.375 L 4.828125 -5.65625 C 4.828125 -5.125 4.921875 -4.703125 5.109375 -4.390625 C 5.304688 -4.078125 5.546875 -3.851562 5.828125 -3.71875 C 6.109375 -3.59375 6.382812 -3.53125 6.65625 -3.53125 C 7.15625 -3.53125 7.582031 -3.703125 7.9375 -4.046875 C 8.300781 -4.390625 8.484375 -4.859375 8.484375 -5.453125 C 8.484375 -5.972656 8.382812 -6.421875 8.1875 -6.796875 C 8 -7.179688 7.695312 -7.566406 7.28125 -7.953125 C 6.875 -8.335938 6.335938 -8.800781 5.671875 -9.34375 C 4.835938 -10.03125 4.113281 -10.632812 3.5 -11.15625 C 2.882812 -11.675781 2.375 -12.195312 1.96875 -12.71875 C 1.570312 -13.238281 1.273438 -13.820312 1.078125 -14.46875 C 0.890625 -15.113281 0.796875 -15.894531 0.796875 -16.8125 C 0.796875 -17.644531 0.921875 -18.378906 1.171875 -19.015625 C 1.421875 -19.660156 1.75 -20.207031 2.15625 -20.65625 C 2.570312 -21.101562 3.03125 -21.46875 3.53125 -21.75 C 4.039062 -22.039062 4.550781 -22.25 5.0625 -22.375 C 5.570312 -22.507812 6.054688 -22.578125 6.515625 -22.578125 C 7.628906 -22.578125 8.613281 -22.335938 9.46875 -21.859375 C 10.320312 -21.378906 10.992188 -20.695312 11.484375 -19.8125 C 11.972656 -18.9375 12.21875 -17.90625 12.21875 -16.71875 L 12.21875 -15.796875 C 12.21875 -15.578125 12.175781 -15.421875 12.09375 -15.328125 C 12.007812 -15.234375 11.84375 -15.1875 11.59375 -15.1875 L 8.71875 -15.1875 C 8.507812 -15.1875 8.378906 -15.234375 8.328125 -15.328125 C 8.273438 -15.421875 8.25 -15.578125 8.25 -15.796875 L 8.25 -16.703125 C 8.25 -17.253906 8.101562 -17.726562 7.8125 -18.125 C 7.519531 -18.53125 7.085938 -18.734375 6.515625 -18.734375 C 6.242188 -18.734375 5.972656 -18.664062 5.703125 -18.53125 C 5.441406 -18.394531 5.222656 -18.175781 5.046875 -17.875 C 4.867188 -17.582031 4.78125 -17.191406 4.78125 -16.703125 C 4.78125 -16.203125 4.878906 -15.769531 5.078125 -15.40625 C 5.273438 -15.050781 5.550781 -14.71875 5.90625 -14.40625 C 6.269531 -14.09375 6.6875 -13.75 7.15625 -13.375 C 7.90625 -12.789062 8.601562 -12.222656 9.25 -11.671875 C 9.90625 -11.128906 10.476562 -10.550781 10.96875 -9.9375 C 11.46875 -9.332031 11.851562 -8.648438 12.125 -7.890625 C 12.40625 -7.128906 12.546875 -6.238281 12.546875 -5.21875 C 12.546875 -4.46875 12.40625 -3.757812 12.125 -3.09375 C 11.84375 -2.425781 11.441406 -1.832031 10.921875 -1.3125 C 10.398438 -0.789062 9.773438 -0.378906 9.046875 -0.078125 C 8.316406 0.210938 7.507812 0.359375 6.625 0.359375 C 5.65625 0.359375 4.804688 0.203125 4.078125 -0.109375 C 3.347656 -0.429688 2.738281 -0.859375 2.25 -1.390625 C 1.769531 -1.929688 1.40625 -2.550781 1.15625 -3.25 C 0.914062 -3.945312 0.796875 -4.671875 0.796875 -5.421875 L 0.796875 -6.265625 C 0.796875 -6.546875 0.832031 -6.742188 0.90625 -6.859375 C 0.976562 -6.984375 1.125 -7.046875 1.34375 -7.046875 L 4.28125 -7.046875 C 4.5 -7.046875 4.644531 -6.992188 4.71875 -6.890625 C 4.789062 -6.796875 4.828125 -6.625 4.828125 -6.375 Z M 4.828125 -6.375 "/></g></g></g><g fill="#c5202b" fill-opacity="1"><g transform="translate(220.90233, 189.79654)"><g><path d="M 1.125 -21.703125 C 1.125 -22.066406 1.304688 -22.25 1.671875 -22.25 L 4.671875 -22.25 C 5.023438 -22.25 5.203125 -22.066406 5.203125 -21.703125 L 5.203125 -16.015625 C 5.578125 -16.242188 5.976562 -16.425781 6.40625 -16.5625 C 6.832031 -16.695312 7.269531 -16.765625 7.71875 -16.765625 C 8.550781 -16.765625 9.300781 -16.554688 9.96875 -16.140625 C 10.644531 -15.734375 11.175781 -15.15625 11.5625 -14.40625 C 11.957031 -13.664062 12.15625 -12.789062 12.15625 -11.78125 L 12.15625 -0.546875 C 12.15625 -0.378906 12.101562 -0.242188 12 -0.140625 C 11.90625 -0.046875 11.796875 0 11.671875 0 L 8.546875 0 C 8.410156 0 8.296875 -0.046875 8.203125 -0.140625 C 8.109375 -0.242188 8.0625 -0.378906 8.0625 -0.546875 L 8.0625 -11.765625 C 8.0625 -12.140625 7.929688 -12.472656 7.671875 -12.765625 C 7.410156 -13.054688 7.070312 -13.203125 6.65625 -13.203125 C 6.351562 -13.203125 6.097656 -13.125 5.890625 -12.96875 C 5.679688 -12.8125 5.519531 -12.613281 5.40625 -12.375 C 5.289062 -12.132812 5.222656 -11.882812 5.203125 -11.625 L 5.203125 -0.59375 C 5.203125 -0.457031 5.148438 -0.320312 5.046875 -0.1875 C 4.941406 -0.0625 4.753906 0 4.484375 0 L 1.671875 0 C 1.304688 0 1.125 -0.171875 1.125 -0.515625 Z M 1.125 -21.703125 "/></g></g></g><g fill="#c5202b" fill-opacity="1"><g transform="translate(234.034161, 189.79654)"><g><path d="M 1.671875 -16.46875 L 4.609375 -16.46875 C 4.773438 -16.46875 4.914062 -16.414062 5.03125 -16.3125 C 5.15625 -16.21875 5.21875 -16.101562 5.21875 -15.96875 L 5.21875 -0.53125 C 5.21875 -0.351562 5.160156 -0.21875 5.046875 -0.125 C 4.941406 -0.0390625 4.796875 0 4.609375 0 L 1.671875 0 C 1.304688 0 1.125 -0.175781 1.125 -0.53125 L 1.125 -15.96875 C 1.125 -16.113281 1.179688 -16.234375 1.296875 -16.328125 C 1.410156 -16.421875 1.535156 -16.46875 1.671875 -16.46875 Z M 5.328125 -20.6875 L 5.328125 -18.46875 C 5.328125 -18.164062 5.25 -17.957031 5.09375 -17.84375 C 4.945312 -17.738281 4.742188 -17.6875 4.484375 -17.6875 L 1.875 -17.6875 C 1.613281 -17.6875 1.394531 -17.738281 1.21875 -17.84375 C 1.050781 -17.945312 0.96875 -18.148438 0.96875 -18.453125 L 0.96875 -20.703125 C 0.96875 -20.953125 1.03125 -21.15625 1.15625 -21.3125 C 1.289062 -21.476562 1.53125 -21.5625 1.875 -21.5625 L 4.484375 -21.5625 C 4.785156 -21.5625 5 -21.484375 5.125 -21.328125 C 5.257812 -21.179688 5.328125 -20.96875 5.328125 -20.6875 Z M 5.328125 -20.6875 "/></g></g></g><g fill="#c5202b" fill-opacity="1"><g transform="translate(240.383091, 189.79654)"><g><path d="M 1.125 4.578125 L 1.125 -15.9375 C 1.125 -16.289062 1.304688 -16.46875 1.671875 -16.46875 L 3.640625 -16.46875 C 3.816406 -16.46875 3.945312 -16.425781 4.03125 -16.34375 C 4.125 -16.269531 4.210938 -16.09375 4.296875 -15.8125 L 4.375 -15.421875 C 4.800781 -15.828125 5.285156 -16.148438 5.828125 -16.390625 C 6.367188 -16.640625 6.957031 -16.765625 7.59375 -16.765625 C 8.519531 -16.765625 9.320312 -16.539062 10 -16.09375 C 10.6875 -15.65625 11.21875 -15.0625 11.59375 -14.3125 C 11.96875 -13.570312 12.15625 -12.742188 12.15625 -11.828125 L 12.15625 -4.640625 C 12.15625 -3.734375 11.972656 -2.90625 11.609375 -2.15625 C 11.253906 -1.40625 10.738281 -0.804688 10.0625 -0.359375 C 9.382812 0.0859375 8.570312 0.3125 7.625 0.3125 C 7.195312 0.3125 6.78125 0.242188 6.375 0.109375 C 5.96875 -0.015625 5.578125 -0.195312 5.203125 -0.4375 L 5.203125 4.578125 C 5.203125 4.941406 5.03125 5.125 4.6875 5.125 L 1.671875 5.125 C 1.304688 5.125 1.125 4.941406 1.125 4.578125 Z M 6.640625 -13.203125 C 6.210938 -13.203125 5.863281 -13.050781 5.59375 -12.75 C 5.332031 -12.457031 5.203125 -12.128906 5.203125 -11.765625 L 5.203125 -4.671875 C 5.203125 -4.316406 5.332031 -3.992188 5.59375 -3.703125 C 5.851562 -3.410156 6.203125 -3.265625 6.640625 -3.265625 C 7.078125 -3.265625 7.421875 -3.410156 7.671875 -3.703125 C 7.929688 -3.992188 8.0625 -4.320312 8.0625 -4.6875 L 8.0625 -11.765625 C 8.0625 -12.117188 7.929688 -12.445312 7.671875 -12.75 C 7.421875 -13.050781 7.078125 -13.203125 6.640625 -13.203125 Z M 6.640625 -13.203125 "/></g></g></g><g fill="#042d62" fill-opacity="1"><g transform="translate(253.370509, 189.79654)"><g/></g></g><g fill="#042d62" fill-opacity="1"><g transform="translate(260.828486, 189.79654)"><g><path d="M 7.171875 0.359375 C 6.367188 0.359375 5.601562 0.210938 4.875 -0.078125 C 4.15625 -0.367188 3.519531 -0.769531 2.96875 -1.28125 C 2.414062 -1.789062 1.976562 -2.378906 1.65625 -3.046875 C 1.332031 -3.722656 1.171875 -4.445312 1.171875 -5.21875 L 1.171875 -21.625 C 1.171875 -21.789062 1.210938 -21.9375 1.296875 -22.0625 C 1.390625 -22.1875 1.488281 -22.25 1.59375 -22.25 L 4.984375 -22.25 C 5.171875 -22.25 5.296875 -22.1875 5.359375 -22.0625 C 5.429688 -21.9375 5.46875 -21.789062 5.46875 -21.625 L 5.46875 -5.46875 C 5.46875 -4.957031 5.613281 -4.503906 5.90625 -4.109375 C 6.207031 -3.710938 6.632812 -3.515625 7.1875 -3.515625 C 7.550781 -3.515625 7.859375 -3.601562 8.109375 -3.78125 C 8.359375 -3.96875 8.550781 -4.210938 8.6875 -4.515625 C 8.820312 -4.816406 8.890625 -5.132812 8.890625 -5.46875 L 8.890625 -21.609375 C 8.890625 -21.773438 8.929688 -21.921875 9.015625 -22.046875 C 9.097656 -22.179688 9.226562 -22.25 9.40625 -22.25 L 12.671875 -22.25 C 12.847656 -22.25 12.976562 -22.179688 13.0625 -22.046875 C 13.144531 -21.910156 13.1875 -21.765625 13.1875 -21.609375 L 13.1875 -5.21875 C 13.1875 -4.445312 13.023438 -3.722656 12.703125 -3.046875 C 12.378906 -2.378906 11.9375 -1.789062 11.375 -1.28125 C 10.820312 -0.769531 10.179688 -0.367188 9.453125 -0.078125 C 8.734375 0.210938 7.972656 0.359375 7.171875 0.359375 Z M 7.171875 0.359375 "/></g></g></g><g fill="#042d62" fill-opacity="1"><g transform="translate(275.181882, 189.79654)"><g><path d="M 1.84375 0 C 1.488281 0 1.3125 -0.203125 1.3125 -0.609375 L 1.3125 -21.625 C 1.3125 -22.039062 1.488281 -22.25 1.84375 -22.25 L 5.0625 -22.25 C 5.414062 -22.25 5.59375 -22.039062 5.59375 -21.625 L 5.59375 -13.296875 L 9.5 -21.828125 C 9.582031 -22.035156 9.675781 -22.15625 9.78125 -22.1875 C 9.894531 -22.226562 10.035156 -22.25 10.203125 -22.25 L 13.578125 -22.25 C 13.765625 -22.25 13.851562 -22.171875 13.84375 -22.015625 C 13.84375 -21.859375 13.8125 -21.710938 13.75 -21.578125 L 9.25 -11.734375 L 13.953125 -0.671875 C 14.023438 -0.484375 14.023438 -0.320312 13.953125 -0.1875 C 13.878906 -0.0625 13.765625 0 13.609375 0 L 10.296875 0 C 10.128906 0 9.988281 -0.0390625 9.875 -0.125 C 9.769531 -0.21875 9.691406 -0.347656 9.640625 -0.515625 L 6.640625 -8.28125 L 5.59375 -6.34375 L 5.59375 -0.609375 C 5.59375 -0.203125 5.414062 0 5.0625 0 Z M 1.84375 0 "/></g></g></g><g transform="matrix(1, 0, 0, 1, 140, 199)"><g clip-path="url(#349d53eb12)"><g clip-path="url(#0126e7742a)"><g fill="#042d62" fill-opacity="1"><g transform="translate(0.219339, 10.194462)"><g><path d="M 6.46875 -8.65625 C 6.59375 -8.65625 6.734375 -8.675781 6.890625 -8.71875 C 7.046875 -8.757812 7.175781 -8.84375 7.28125 -8.96875 L 7.625 -6.09375 L 7.359375 -6.0625 C 7.265625 -6.289062 7.132812 -6.515625 6.96875 -6.734375 C 6.800781 -6.953125 6.609375 -7.144531 6.390625 -7.3125 C 6.171875 -7.476562 5.929688 -7.613281 5.671875 -7.71875 C 5.410156 -7.820312 5.140625 -7.875 4.859375 -7.875 C 4.703125 -7.875 4.535156 -7.851562 4.359375 -7.8125 C 4.191406 -7.769531 4.035156 -7.707031 3.890625 -7.625 C 3.753906 -7.539062 3.640625 -7.429688 3.546875 -7.296875 C 3.453125 -7.171875 3.40625 -7.015625 3.40625 -6.828125 C 3.40625 -6.703125 3.425781 -6.59375 3.46875 -6.5 C 3.507812 -6.40625 3.582031 -6.320312 3.6875 -6.25 C 3.800781 -6.175781 3.945312 -6.101562 4.125 -6.03125 C 4.300781 -5.96875 4.519531 -5.894531 4.78125 -5.8125 L 6.328125 -5.359375 C 6.640625 -5.253906 6.929688 -5.125 7.203125 -4.96875 C 7.472656 -4.820312 7.707031 -4.644531 7.90625 -4.4375 C 8.101562 -4.238281 8.253906 -4.015625 8.359375 -3.765625 C 8.472656 -3.515625 8.53125 -3.253906 8.53125 -2.984375 C 8.53125 -1.941406 8.160156 -1.144531 7.421875 -0.59375 C 6.691406 -0.0507812 5.597656 0.21875 4.140625 0.21875 C 3.773438 0.21875 3.429688 0.191406 3.109375 0.140625 C 2.785156 0.0976562 2.515625 0.0546875 2.296875 0.015625 C 2.140625 -0.015625 1.984375 -0.046875 1.828125 -0.078125 C 1.679688 -0.109375 1.546875 -0.125 1.421875 -0.125 C 1.296875 -0.125 1.175781 -0.0976562 1.0625 -0.046875 C 0.945312 -0.00390625 0.828125 0.078125 0.703125 0.203125 L 0.40625 -3.5 L 0.703125 -3.53125 C 0.765625 -3.144531 0.882812 -2.785156 1.0625 -2.453125 C 1.25 -2.128906 1.476562 -1.847656 1.75 -1.609375 C 2.019531 -1.378906 2.328125 -1.191406 2.671875 -1.046875 C 3.023438 -0.910156 3.398438 -0.84375 3.796875 -0.84375 C 4.171875 -0.84375 4.476562 -0.878906 4.71875 -0.953125 C 4.96875 -1.023438 5.164062 -1.117188 5.3125 -1.234375 C 5.457031 -1.359375 5.5625 -1.5 5.625 -1.65625 C 5.6875 -1.8125 5.71875 -1.976562 5.71875 -2.15625 C 5.71875 -2.238281 5.703125 -2.320312 5.671875 -2.40625 C 5.648438 -2.488281 5.59375 -2.578125 5.5 -2.671875 C 5.414062 -2.765625 5.285156 -2.859375 5.109375 -2.953125 C 4.929688 -3.046875 4.695312 -3.144531 4.40625 -3.25 L 2.984375 -3.703125 C 2.554688 -3.835938 2.191406 -3.976562 1.890625 -4.125 C 1.597656 -4.28125 1.363281 -4.472656 1.1875 -4.703125 C 1.039062 -4.890625 0.921875 -5.09375 0.828125 -5.3125 C 0.742188 -5.53125 0.703125 -5.769531 0.703125 -6.03125 C 0.703125 -6.46875 0.773438 -6.863281 0.921875 -7.21875 C 1.078125 -7.570312 1.304688 -7.878906 1.609375 -8.140625 C 1.898438 -8.378906 2.253906 -8.570312 2.671875 -8.71875 C 3.085938 -8.863281 3.546875 -8.9375 4.046875 -8.9375 C 4.515625 -8.9375 4.925781 -8.90625 5.28125 -8.84375 C 5.632812 -8.789062 5.910156 -8.742188 6.109375 -8.703125 C 6.273438 -8.671875 6.394531 -8.65625 6.46875 -8.65625 Z M 6.46875 -8.65625 "/></g></g></g></g><g fill="#042d62" fill-opacity="1"><g transform="translate(8.962296, 10.194462)"><g><path d="M 3.390625 -8.9375 L 3.390625 -5.421875 C 3.796875 -5.847656 4.234375 -6.164062 4.703125 -6.375 C 5.171875 -6.59375 5.644531 -6.703125 6.125 -6.703125 C 6.4375 -6.703125 6.703125 -6.644531 6.921875 -6.53125 C 7.140625 -6.414062 7.316406 -6.269531 7.453125 -6.09375 C 7.597656 -5.914062 7.691406 -5.703125 7.734375 -5.453125 C 7.785156 -5.210938 7.8125 -4.925781 7.8125 -4.59375 L 7.8125 -1.34375 C 7.8125 -0.957031 7.878906 -0.691406 8.015625 -0.546875 C 8.160156 -0.410156 8.328125 -0.335938 8.515625 -0.328125 L 8.515625 0 L 4.59375 0 L 4.59375 -0.328125 C 4.875 -0.347656 5.066406 -0.453125 5.171875 -0.640625 C 5.285156 -0.828125 5.34375 -1.0625 5.34375 -1.34375 L 5.34375 -4.3125 C 5.34375 -4.601562 5.296875 -4.835938 5.203125 -5.015625 C 5.117188 -5.203125 4.945312 -5.296875 4.6875 -5.296875 C 4.5625 -5.296875 4.398438 -5.253906 4.203125 -5.171875 C 4.015625 -5.085938 3.84375 -4.90625 3.6875 -4.625 C 3.59375 -4.46875 3.519531 -4.273438 3.46875 -4.046875 C 3.425781 -3.816406 3.40625 -3.515625 3.40625 -3.140625 L 3.40625 -1.34375 C 3.40625 -1.039062 3.457031 -0.800781 3.5625 -0.625 C 3.675781 -0.445312 3.863281 -0.347656 4.125 -0.328125 L 4.125 0 L 0.21875 0 L 0.21875 -0.328125 C 0.394531 -0.335938 0.554688 -0.410156 0.703125 -0.546875 C 0.847656 -0.691406 0.921875 -0.957031 0.921875 -1.34375 L 0.921875 -7.421875 C 0.921875 -7.734375 0.863281 -7.972656 0.75 -8.140625 C 0.644531 -8.316406 0.46875 -8.410156 0.21875 -8.421875 L 0.21875 -8.765625 Z M 3.390625 -8.9375 "/></g></g></g><g clip-path="url(#534900da57)"><g fill="#042d62" fill-opacity="1"><g transform="translate(17.705252, 10.194462)"><g><path d="M 3.40625 -6.640625 L 3.40625 -1.359375 C 3.40625 -1.085938 3.457031 -0.851562 3.5625 -0.65625 C 3.664062 -0.457031 3.859375 -0.347656 4.140625 -0.328125 L 4.140625 0 L 0.21875 0 L 0.21875 -0.328125 C 0.3125 -0.328125 0.398438 -0.34375 0.484375 -0.375 C 0.578125 -0.414062 0.65625 -0.472656 0.71875 -0.546875 C 0.789062 -0.628906 0.84375 -0.734375 0.875 -0.859375 C 0.914062 -0.992188 0.9375 -1.15625 0.9375 -1.34375 L 0.9375 -5.09375 C 0.9375 -5.75 0.695312 -6.09375 0.21875 -6.125 L 0.21875 -6.453125 Z M 0.796875 -8.515625 C 0.796875 -8.710938 0.832031 -8.882812 0.90625 -9.03125 C 0.988281 -9.1875 1.097656 -9.3125 1.234375 -9.40625 C 1.367188 -9.5 1.519531 -9.570312 1.6875 -9.625 C 1.851562 -9.6875 2.023438 -9.71875 2.203125 -9.71875 C 2.566406 -9.71875 2.867188 -9.601562 3.109375 -9.375 C 3.359375 -9.144531 3.484375 -8.847656 3.484375 -8.484375 C 3.484375 -8.304688 3.441406 -8.144531 3.359375 -8 C 3.285156 -7.851562 3.179688 -7.726562 3.046875 -7.625 C 2.921875 -7.53125 2.773438 -7.457031 2.609375 -7.40625 C 2.453125 -7.351562 2.289062 -7.328125 2.125 -7.328125 C 1.769531 -7.328125 1.457031 -7.429688 1.1875 -7.640625 C 0.925781 -7.847656 0.796875 -8.140625 0.796875 -8.515625 Z M 0.796875 -8.515625 "/></g></g></g></g><g fill="#042d62" fill-opacity="1"><g transform="translate(22.209308, 10.194462)"><g><path d="M 3.421875 -1.921875 C 3.421875 -1.773438 3.421875 -1.628906 3.421875 -1.484375 C 3.421875 -1.347656 3.4375 -1.226562 3.46875 -1.125 C 3.507812 -1.03125 3.582031 -0.953125 3.6875 -0.890625 C 3.800781 -0.828125 3.960938 -0.796875 4.171875 -0.796875 C 4.492188 -0.796875 4.757812 -0.867188 4.96875 -1.015625 C 5.1875 -1.160156 5.363281 -1.34375 5.5 -1.5625 C 5.644531 -1.789062 5.75 -2.046875 5.8125 -2.328125 C 5.875 -2.609375 5.90625 -2.882812 5.90625 -3.15625 C 5.90625 -3.539062 5.847656 -3.882812 5.734375 -4.1875 C 5.617188 -4.5 5.460938 -4.765625 5.265625 -4.984375 C 5.078125 -5.210938 4.851562 -5.382812 4.59375 -5.5 C 4.332031 -5.613281 4.054688 -5.671875 3.765625 -5.671875 L 3.421875 -5.671875 Z M 4.59375 -6.53125 C 5.3125 -6.53125 5.894531 -6.445312 6.34375 -6.28125 C 6.800781 -6.113281 7.175781 -5.890625 7.46875 -5.609375 C 7.707031 -5.378906 7.894531 -5.140625 8.03125 -4.890625 C 8.175781 -4.640625 8.285156 -4.398438 8.359375 -4.171875 C 8.441406 -3.953125 8.492188 -3.742188 8.515625 -3.546875 C 8.546875 -3.359375 8.5625 -3.203125 8.5625 -3.078125 C 8.5625 -2.910156 8.546875 -2.722656 8.515625 -2.515625 C 8.484375 -2.316406 8.425781 -2.113281 8.34375 -1.90625 C 8.269531 -1.707031 8.160156 -1.5 8.015625 -1.28125 C 7.867188 -1.070312 7.6875 -0.867188 7.46875 -0.671875 C 7.164062 -0.421875 6.769531 -0.222656 6.28125 -0.078125 C 5.789062 0.0546875 5.21875 0.125 4.5625 0.125 C 4.4375 0.125 4.300781 0.117188 4.15625 0.109375 C 4.007812 0.109375 3.765625 0.0859375 3.421875 0.046875 L 3.421875 1.53125 C 3.421875 1.59375 3.425781 1.679688 3.4375 1.796875 C 3.457031 1.910156 3.492188 2.019531 3.546875 2.125 C 3.609375 2.226562 3.691406 2.320312 3.796875 2.40625 C 3.910156 2.488281 4.054688 2.535156 4.234375 2.546875 L 4.234375 2.875 L 0.09375 2.875 L 0.09375 2.546875 C 0.25 2.535156 0.378906 2.5 0.484375 2.4375 C 0.597656 2.375 0.6875 2.289062 0.75 2.1875 C 0.8125 2.09375 0.859375 1.988281 0.890625 1.875 C 0.921875 1.757812 0.9375 1.640625 0.9375 1.515625 L 0.9375 -5.1875 C 0.9375 -5.84375 0.695312 -6.179688 0.21875 -6.203125 L 0.21875 -6.53125 Z M 4.59375 -6.53125 "/></g></g></g><g fill="#042d62" fill-opacity="1"><g transform="translate(31.217205, 10.194462)"><g/></g></g><g fill="#042d62" fill-opacity="1"><g transform="translate(35.721153, 10.194462)"><g><path d="M 6.46875 -8.65625 C 6.59375 -8.65625 6.734375 -8.675781 6.890625 -8.71875 C 7.046875 -8.757812 7.175781 -8.84375 7.28125 -8.96875 L 7.625 -6.09375 L 7.359375 -6.0625 C 7.265625 -6.289062 7.132812 -6.515625 6.96875 -6.734375 C 6.800781 -6.953125 6.609375 -7.144531 6.390625 -7.3125 C 6.171875 -7.476562 5.929688 -7.613281 5.671875 -7.71875 C 5.410156 -7.820312 5.140625 -7.875 4.859375 -7.875 C 4.703125 -7.875 4.535156 -7.851562 4.359375 -7.8125 C 4.191406 -7.769531 4.035156 -7.707031 3.890625 -7.625 C 3.753906 -7.539062 3.640625 -7.429688 3.546875 -7.296875 C 3.453125 -7.171875 3.40625 -7.015625 3.40625 -6.828125 C 3.40625 -6.703125 3.425781 -6.59375 3.46875 -6.5 C 3.507812 -6.40625 3.582031 -6.320312 3.6875 -6.25 C 3.800781 -6.175781 3.945312 -6.101562 4.125 -6.03125 C 4.300781 -5.96875 4.519531 -5.894531 4.78125 -5.8125 L 6.328125 -5.359375 C 6.640625 -5.253906 6.929688 -5.125 7.203125 -4.96875 C 7.472656 -4.820312 7.707031 -4.644531 7.90625 -4.4375 C 8.101562 -4.238281 8.253906 -4.015625 8.359375 -3.765625 C 8.472656 -3.515625 8.53125 -3.253906 8.53125 -2.984375 C 8.53125 -1.941406 8.160156 -1.144531 7.421875 -0.59375 C 6.691406 -0.0507812 5.597656 0.21875 4.140625 0.21875 C 3.773438 0.21875 3.429688 0.191406 3.109375 0.140625 C 2.785156 0.0976562 2.515625 0.0546875 2.296875 0.015625 C 2.140625 -0.015625 1.984375 -0.046875 1.828125 -0.078125 C 1.679688 -0.109375 1.546875 -0.125 1.421875 -0.125 C 1.296875 -0.125 1.175781 -0.0976562 1.0625 -0.046875 C 0.945312 -0.00390625 0.828125 0.078125 0.703125 0.203125 L 0.40625 -3.5 L 0.703125 -3.53125 C 0.765625 -3.144531 0.882812 -2.785156 1.0625 -2.453125 C 1.25 -2.128906 1.476562 -1.847656 1.75 -1.609375 C 2.019531 -1.378906 2.328125 -1.191406 2.671875 -1.046875 C 3.023438 -0.910156 3.398438 -0.84375 3.796875 -0.84375 C 4.171875 -0.84375 4.476562 -0.878906 4.71875 -0.953125 C 4.96875 -1.023438 5.164062 -1.117188 5.3125 -1.234375 C 5.457031 -1.359375 5.5625 -1.5 5.625 -1.65625 C 5.6875 -1.8125 5.71875 -1.976562 5.71875 -2.15625 C 5.71875 -2.238281 5.703125 -2.320312 5.671875 -2.40625 C 5.648438 -2.488281 5.59375 -2.578125 5.5 -2.671875 C 5.414062 -2.765625 5.285156 -2.859375 5.109375 -2.953125 C 4.929688 -3.046875 4.695312 -3.144531 4.40625 -3.25 L 2.984375 -3.703125 C 2.554688 -3.835938 2.191406 -3.976562 1.890625 -4.125 C 1.597656 -4.28125 1.363281 -4.472656 1.1875 -4.703125 C 1.039062 -4.890625 0.921875 -5.09375 0.828125 -5.3125 C 0.742188 -5.53125 0.703125 -5.769531 0.703125 -6.03125 C 0.703125 -6.46875 0.773438 -6.863281 0.921875 -7.21875 C 1.078125 -7.570312 1.304688 -7.878906 1.609375 -8.140625 C 1.898438 -8.378906 2.253906 -8.570312 2.671875 -8.71875 C 3.085938 -8.863281 3.546875 -8.9375 4.046875 -8.9375 C 4.515625 -8.9375 4.925781 -8.90625 5.28125 -8.84375 C 5.632812 -8.789062 5.910156 -8.742188 6.109375 -8.703125 C 6.273438 -8.671875 6.394531 -8.65625 6.46875 -8.65625 Z M 6.46875 -8.65625 "/></g></g></g><g fill="#042d62" fill-opacity="1"><g transform="translate(44.464109, 10.194462)"><g><path d="M 3.46875 -5.375 C 3.914062 -5.832031 4.351562 -6.164062 4.78125 -6.375 C 5.21875 -6.59375 5.617188 -6.703125 5.984375 -6.703125 C 6.410156 -6.703125 6.773438 -6.59375 7.078125 -6.375 C 7.390625 -6.164062 7.601562 -5.832031 7.71875 -5.375 C 7.863281 -5.539062 8.03125 -5.707031 8.21875 -5.875 C 8.40625 -6.039062 8.609375 -6.179688 8.828125 -6.296875 C 9.046875 -6.421875 9.273438 -6.519531 9.515625 -6.59375 C 9.753906 -6.664062 10 -6.703125 10.25 -6.703125 C 10.53125 -6.703125 10.769531 -6.65625 10.96875 -6.5625 C 11.164062 -6.476562 11.332031 -6.378906 11.46875 -6.265625 C 11.695312 -6.066406 11.835938 -5.820312 11.890625 -5.53125 C 11.953125 -5.238281 11.984375 -4.9375 11.984375 -4.625 L 11.984375 -1.34375 C 11.984375 -1.039062 12.039062 -0.800781 12.15625 -0.625 C 12.269531 -0.445312 12.457031 -0.347656 12.71875 -0.328125 L 12.71875 0 L 8.75 0 L 8.75 -0.328125 C 9.03125 -0.347656 9.222656 -0.457031 9.328125 -0.65625 C 9.441406 -0.863281 9.5 -1.09375 9.5 -1.34375 L 9.5 -4.046875 C 9.5 -4.503906 9.445312 -4.820312 9.34375 -5 C 9.25 -5.1875 9.09375 -5.28125 8.875 -5.28125 C 8.78125 -5.28125 8.65625 -5.25 8.5 -5.1875 C 8.351562 -5.125 8.210938 -4.992188 8.078125 -4.796875 C 8.035156 -4.722656 7.992188 -4.648438 7.953125 -4.578125 C 7.910156 -4.503906 7.867188 -4.40625 7.828125 -4.28125 C 7.796875 -4.164062 7.769531 -4.015625 7.75 -3.828125 C 7.726562 -3.640625 7.71875 -3.398438 7.71875 -3.109375 L 7.71875 -1.34375 C 7.71875 -0.695312 7.960938 -0.359375 8.453125 -0.328125 L 8.453125 0 L 4.484375 0 L 4.484375 -0.328125 C 4.765625 -0.347656 4.960938 -0.457031 5.078125 -0.65625 C 5.191406 -0.863281 5.25 -1.09375 5.25 -1.34375 L 5.25 -4.015625 C 5.25 -4.492188 5.203125 -4.820312 5.109375 -5 C 5.015625 -5.1875 4.847656 -5.28125 4.609375 -5.28125 C 4.515625 -5.28125 4.421875 -5.257812 4.328125 -5.21875 C 4.234375 -5.175781 4.148438 -5.128906 4.078125 -5.078125 C 3.992188 -5.003906 3.914062 -4.929688 3.84375 -4.859375 C 3.78125 -4.785156 3.726562 -4.695312 3.6875 -4.59375 C 3.582031 -4.363281 3.519531 -4.128906 3.5 -3.890625 C 3.476562 -3.648438 3.46875 -3.460938 3.46875 -3.328125 L 3.46875 -1.34375 C 3.46875 -1.0625 3.523438 -0.828125 3.640625 -0.640625 C 3.765625 -0.453125 3.960938 -0.347656 4.234375 -0.328125 L 4.234375 0 L 0.28125 0 L 0.28125 -0.328125 C 0.46875 -0.335938 0.632812 -0.410156 0.78125 -0.546875 C 0.925781 -0.691406 1 -0.957031 1 -1.34375 L 1 -5.109375 C 1 -5.421875 0.941406 -5.660156 0.828125 -5.828125 C 0.710938 -6.003906 0.53125 -6.101562 0.28125 -6.125 L 0.28125 -6.453125 L 3.09375 -6.640625 C 3.195312 -6.484375 3.269531 -6.304688 3.3125 -6.109375 C 3.351562 -5.921875 3.40625 -5.675781 3.46875 -5.375 Z M 3.46875 -5.375 "/></g></g></g><g fill="#042d62" fill-opacity="1"><g transform="translate(57.446074, 10.194462)"><g><path d="M 3.515625 -1.15625 C 3.753906 -1.15625 3.945312 -1.222656 4.09375 -1.359375 C 4.25 -1.503906 4.375 -1.691406 4.46875 -1.921875 C 4.570312 -2.148438 4.644531 -2.410156 4.6875 -2.703125 C 4.726562 -2.992188 4.75 -3.296875 4.75 -3.609375 C 4.519531 -3.566406 4.332031 -3.523438 4.1875 -3.484375 C 4.039062 -3.453125 3.910156 -3.398438 3.796875 -3.328125 C 3.421875 -3.128906 3.160156 -2.894531 3.015625 -2.625 C 2.867188 -2.351562 2.796875 -2.132812 2.796875 -1.96875 C 2.796875 -1.769531 2.859375 -1.582031 2.984375 -1.40625 C 3.109375 -1.238281 3.285156 -1.15625 3.515625 -1.15625 Z M 2.265625 -6.375 C 2.640625 -6.457031 3.007812 -6.53125 3.375 -6.59375 C 3.738281 -6.664062 4.144531 -6.703125 4.59375 -6.703125 C 5.1875 -6.703125 5.644531 -6.644531 5.96875 -6.53125 C 6.289062 -6.414062 6.550781 -6.269531 6.75 -6.09375 C 6.945312 -5.894531 7.070312 -5.632812 7.125 -5.3125 C 7.1875 -4.988281 7.21875 -4.648438 7.21875 -4.296875 L 7.21875 -1.6875 C 7.21875 -1.40625 7.226562 -1.179688 7.25 -1.015625 C 7.269531 -0.847656 7.304688 -0.71875 7.359375 -0.625 C 7.421875 -0.53125 7.5 -0.460938 7.59375 -0.421875 C 7.6875 -0.378906 7.804688 -0.347656 7.953125 -0.328125 L 7.953125 0 L 5.1875 0 C 5.070312 -0.125 4.976562 -0.257812 4.90625 -0.40625 C 4.832031 -0.550781 4.773438 -0.710938 4.734375 -0.890625 C 4.597656 -0.703125 4.429688 -0.539062 4.234375 -0.40625 C 4.046875 -0.28125 3.835938 -0.171875 3.609375 -0.078125 C 3.378906 0.00390625 3.148438 0.0664062 2.921875 0.109375 C 2.703125 0.148438 2.5 0.171875 2.3125 0.171875 C 2.0625 0.171875 1.816406 0.132812 1.578125 0.0625 C 1.335938 -0.0078125 1.125 -0.113281 0.9375 -0.25 C 0.75 -0.394531 0.597656 -0.570312 0.484375 -0.78125 C 0.367188 -0.988281 0.3125 -1.226562 0.3125 -1.5 C 0.3125 -2 0.460938 -2.414062 0.765625 -2.75 C 1.066406 -3.09375 1.4375 -3.367188 1.875 -3.578125 C 2.320312 -3.785156 2.796875 -3.945312 3.296875 -4.0625 C 3.796875 -4.1875 4.25 -4.28125 4.65625 -4.34375 L 4.75 -4.359375 L 4.75 -4.765625 C 4.75 -5.109375 4.628906 -5.347656 4.390625 -5.484375 C 4.160156 -5.628906 3.875 -5.703125 3.53125 -5.703125 C 3.007812 -5.703125 2.539062 -5.554688 2.125 -5.265625 C 1.71875 -4.984375 1.40625 -4.59375 1.1875 -4.09375 L 0.921875 -4.125 L 1.1875 -6.5 C 1.257812 -6.425781 1.328125 -6.367188 1.390625 -6.328125 C 1.453125 -6.285156 1.53125 -6.265625 1.625 -6.265625 C 1.71875 -6.265625 1.820312 -6.273438 1.9375 -6.296875 C 2.0625 -6.316406 2.171875 -6.34375 2.265625 -6.375 Z M 2.265625 -6.375 "/></g></g></g><g fill="#042d62" fill-opacity="1"><g transform="translate(65.526734, 10.194462)"><g><path d="M 3.28125 -5.171875 C 3.363281 -5.359375 3.476562 -5.539062 3.625 -5.71875 C 3.78125 -5.894531 3.945312 -6.050781 4.125 -6.1875 C 4.3125 -6.332031 4.507812 -6.445312 4.71875 -6.53125 C 4.9375 -6.613281 5.148438 -6.65625 5.359375 -6.65625 C 5.429688 -6.65625 5.519531 -6.648438 5.625 -6.640625 C 5.738281 -6.628906 5.867188 -6.601562 6.015625 -6.5625 L 5.546875 -4.75 C 5.410156 -4.875 5.265625 -4.96875 5.109375 -5.03125 C 4.960938 -5.09375 4.785156 -5.125 4.578125 -5.125 C 4.398438 -5.125 4.21875 -5.078125 4.03125 -4.984375 C 3.84375 -4.890625 3.675781 -4.722656 3.53125 -4.484375 C 3.476562 -4.410156 3.4375 -4.34375 3.40625 -4.28125 C 3.375 -4.226562 3.347656 -4.15625 3.328125 -4.0625 C 3.316406 -3.976562 3.304688 -3.867188 3.296875 -3.734375 C 3.285156 -3.609375 3.28125 -3.4375 3.28125 -3.21875 L 3.28125 -1.34375 C 3.28125 -1.28125 3.289062 -1.191406 3.3125 -1.078125 C 3.332031 -0.960938 3.367188 -0.847656 3.421875 -0.734375 C 3.472656 -0.628906 3.546875 -0.535156 3.640625 -0.453125 C 3.742188 -0.378906 3.878906 -0.335938 4.046875 -0.328125 L 4.0625 -0.328125 L 4.0625 0 L 0.078125 0 L 0.078125 -0.328125 L 0.09375 -0.328125 C 0.25 -0.335938 0.375 -0.378906 0.46875 -0.453125 C 0.5625 -0.535156 0.628906 -0.628906 0.671875 -0.734375 C 0.722656 -0.847656 0.757812 -0.960938 0.78125 -1.078125 C 0.800781 -1.191406 0.8125 -1.285156 0.8125 -1.359375 L 0.8125 -5.09375 C 0.8125 -5.757812 0.566406 -6.101562 0.078125 -6.125 L 0.078125 -6.453125 L 2.890625 -6.640625 C 3.035156 -6.429688 3.132812 -6.203125 3.1875 -5.953125 C 3.238281 -5.703125 3.269531 -5.441406 3.28125 -5.171875 Z M 3.28125 -5.171875 "/></g></g></g><g fill="#042d62" fill-opacity="1"><g transform="translate(71.713177, 10.194462)"><g><path d="M 1.046875 -8.203125 C 1.578125 -8.296875 2.023438 -8.425781 2.390625 -8.59375 C 2.765625 -8.769531 3.117188 -8.960938 3.453125 -9.171875 L 3.453125 -6.40625 L 4.515625 -6.40625 C 4.597656 -6.40625 4.71875 -6.414062 4.875 -6.4375 C 5.03125 -6.457031 5.164062 -6.5 5.28125 -6.5625 L 4.890625 -5.515625 C 4.847656 -5.546875 4.796875 -5.566406 4.734375 -5.578125 C 4.679688 -5.597656 4.570312 -5.609375 4.40625 -5.609375 L 3.453125 -5.609375 L 3.453125 -2.40625 C 3.453125 -1.9375 3.519531 -1.597656 3.65625 -1.390625 C 3.800781 -1.191406 4 -1.09375 4.25 -1.09375 C 4.40625 -1.09375 4.550781 -1.128906 4.6875 -1.203125 C 4.820312 -1.273438 4.941406 -1.363281 5.046875 -1.46875 C 5.148438 -1.582031 5.242188 -1.707031 5.328125 -1.84375 C 5.410156 -1.976562 5.488281 -2.117188 5.5625 -2.265625 L 5.84375 -2.15625 L 5.171875 -0.265625 C 4.816406 -0.117188 4.457031 -0.0078125 4.09375 0.0625 C 3.738281 0.132812 3.394531 0.171875 3.0625 0.171875 C 2.632812 0.171875 2.285156 0.109375 2.015625 -0.015625 C 1.742188 -0.140625 1.535156 -0.285156 1.390625 -0.453125 C 1.191406 -0.671875 1.070312 -0.929688 1.03125 -1.234375 C 1 -1.535156 0.984375 -1.804688 0.984375 -2.046875 L 0.984375 -5.609375 L 0.046875 -5.609375 L 0.046875 -5.9375 C 0.410156 -6.019531 0.6875 -6.207031 0.875 -6.5 C 1.0625 -6.789062 1.15625 -7.125 1.15625 -7.5 C 1.15625 -7.601562 1.144531 -7.707031 1.125 -7.8125 C 1.101562 -7.925781 1.078125 -8.054688 1.046875 -8.203125 Z M 1.046875 -8.203125 "/></g></g></g><g fill="#042d62" fill-opacity="1"><g transform="translate(77.541815, 10.194462)"><g><path d="M 2.34375 0.875 L 0.296875 0.875 C 0.390625 0.8125 0.488281 0.710938 0.59375 0.578125 C 0.707031 0.453125 0.84375 0.222656 1 -0.109375 L 1.328125 -0.8125 C 1.367188 -0.882812 1.414062 -0.992188 1.46875 -1.140625 C 1.519531 -1.296875 1.546875 -1.4375 1.546875 -1.5625 C 1.546875 -1.632812 1.53125 -1.722656 1.5 -1.828125 L 3.9375 -1.828125 Z M 2.34375 0.875 "/></g></g></g><g fill="#042d62" fill-opacity="1"><g transform="translate(82.045763, 10.194462)"><g/></g></g><g fill="#042d62" fill-opacity="1"><g transform="translate(86.549712, 10.194462)"><g><path d="M 6.46875 -8.65625 C 6.59375 -8.65625 6.734375 -8.675781 6.890625 -8.71875 C 7.046875 -8.757812 7.175781 -8.84375 7.28125 -8.96875 L 7.625 -6.09375 L 7.359375 -6.0625 C 7.265625 -6.289062 7.132812 -6.515625 6.96875 -6.734375 C 6.800781 -6.953125 6.609375 -7.144531 6.390625 -7.3125 C 6.171875 -7.476562 5.929688 -7.613281 5.671875 -7.71875 C 5.410156 -7.820312 5.140625 -7.875 4.859375 -7.875 C 4.703125 -7.875 4.535156 -7.851562 4.359375 -7.8125 C 4.191406 -7.769531 4.035156 -7.707031 3.890625 -7.625 C 3.753906 -7.539062 3.640625 -7.429688 3.546875 -7.296875 C 3.453125 -7.171875 3.40625 -7.015625 3.40625 -6.828125 C 3.40625 -6.703125 3.425781 -6.59375 3.46875 -6.5 C 3.507812 -6.40625 3.582031 -6.320312 3.6875 -6.25 C 3.800781 -6.175781 3.945312 -6.101562 4.125 -6.03125 C 4.300781 -5.96875 4.519531 -5.894531 4.78125 -5.8125 L 6.328125 -5.359375 C 6.640625 -5.253906 6.929688 -5.125 7.203125 -4.96875 C 7.472656 -4.820312 7.707031 -4.644531 7.90625 -4.4375 C 8.101562 -4.238281 8.253906 -4.015625 8.359375 -3.765625 C 8.472656 -3.515625 8.53125 -3.253906 8.53125 -2.984375 C 8.53125 -1.941406 8.160156 -1.144531 7.421875 -0.59375 C 6.691406 -0.0507812 5.597656 0.21875 4.140625 0.21875 C 3.773438 0.21875 3.429688 0.191406 3.109375 0.140625 C 2.785156 0.0976562 2.515625 0.0546875 2.296875 0.015625 C 2.140625 -0.015625 1.984375 -0.046875 1.828125 -0.078125 C 1.679688 -0.109375 1.546875 -0.125 1.421875 -0.125 C 1.296875 -0.125 1.175781 -0.0976562 1.0625 -0.046875 C 0.945312 -0.00390625 0.828125 0.078125 0.703125 0.203125 L 0.40625 -3.5 L 0.703125 -3.53125 C 0.765625 -3.144531 0.882812 -2.785156 1.0625 -2.453125 C 1.25 -2.128906 1.476562 -1.847656 1.75 -1.609375 C 2.019531 -1.378906 2.328125 -1.191406 2.671875 -1.046875 C 3.023438 -0.910156 3.398438 -0.84375 3.796875 -0.84375 C 4.171875 -0.84375 4.476562 -0.878906 4.71875 -0.953125 C 4.96875 -1.023438 5.164062 -1.117188 5.3125 -1.234375 C 5.457031 -1.359375 5.5625 -1.5 5.625 -1.65625 C 5.6875 -1.8125 5.71875 -1.976562 5.71875 -2.15625 C 5.71875 -2.238281 5.703125 -2.320312 5.671875 -2.40625 C 5.648438 -2.488281 5.59375 -2.578125 5.5 -2.671875 C 5.414062 -2.765625 5.285156 -2.859375 5.109375 -2.953125 C 4.929688 -3.046875 4.695312 -3.144531 4.40625 -3.25 L 2.984375 -3.703125 C 2.554688 -3.835938 2.191406 -3.976562 1.890625 -4.125 C 1.597656 -4.28125 1.363281 -4.472656 1.1875 -4.703125 C 1.039062 -4.890625 0.921875 -5.09375 0.828125 -5.3125 C 0.742188 -5.53125 0.703125 -5.769531 0.703125 -6.03125 C 0.703125 -6.46875 0.773438 -6.863281 0.921875 -7.21875 C 1.078125 -7.570312 1.304688 -7.878906 1.609375 -8.140625 C 1.898438 -8.378906 2.253906 -8.570312 2.671875 -8.71875 C 3.085938 -8.863281 3.546875 -8.9375 4.046875 -8.9375 C 4.515625 -8.9375 4.925781 -8.90625 5.28125 -8.84375 C 5.632812 -8.789062 5.910156 -8.742188 6.109375 -8.703125 C 6.273438 -8.671875 6.394531 -8.65625 6.46875 -8.65625 Z M 6.46875 -8.65625 "/></g></g></g><g fill="#042d62" fill-opacity="1"><g transform="translate(95.292668, 10.194462)"><g><path d="M 4.125 -5.6875 C 3.90625 -5.6875 3.722656 -5.625 3.578125 -5.5 C 3.429688 -5.375 3.3125 -5.21875 3.21875 -5.03125 C 3.132812 -4.851562 3.070312 -4.660156 3.03125 -4.453125 C 3 -4.242188 2.984375 -4.054688 2.984375 -3.890625 L 5.171875 -4.328125 C 5.179688 -4.546875 5.160156 -4.738281 5.109375 -4.90625 C 5.066406 -5.070312 4.992188 -5.210938 4.890625 -5.328125 C 4.796875 -5.441406 4.679688 -5.53125 4.546875 -5.59375 C 4.410156 -5.65625 4.269531 -5.6875 4.125 -5.6875 Z M 0.328125 -3.3125 C 0.328125 -3.863281 0.4375 -4.351562 0.65625 -4.78125 C 0.882812 -5.207031 1.175781 -5.5625 1.53125 -5.84375 C 1.894531 -6.132812 2.316406 -6.347656 2.796875 -6.484375 C 3.273438 -6.628906 3.773438 -6.703125 4.296875 -6.703125 C 4.742188 -6.703125 5.160156 -6.648438 5.546875 -6.546875 C 5.941406 -6.441406 6.296875 -6.273438 6.609375 -6.046875 C 6.929688 -5.828125 7.195312 -5.550781 7.40625 -5.21875 C 7.613281 -4.894531 7.753906 -4.503906 7.828125 -4.046875 L 3.0625 -3.09375 C 3.09375 -2.800781 3.15625 -2.523438 3.25 -2.265625 C 3.351562 -2.003906 3.488281 -1.773438 3.65625 -1.578125 C 3.820312 -1.378906 4.019531 -1.21875 4.25 -1.09375 C 4.488281 -0.976562 4.765625 -0.921875 5.078125 -0.921875 C 5.578125 -0.921875 6.03125 -1.0625 6.4375 -1.34375 C 6.851562 -1.625 7.171875 -2.015625 7.390625 -2.515625 L 7.671875 -2.40625 L 6.84375 0.125 C 6.78125 0.0703125 6.710938 0.03125 6.640625 0 C 6.566406 -0.03125 6.476562 -0.046875 6.375 -0.046875 C 6.257812 -0.046875 6.078125 -0.0195312 5.828125 0.03125 C 5.617188 0.0625 5.398438 0.09375 5.171875 0.125 C 4.941406 0.15625 4.703125 0.171875 4.453125 0.171875 C 3.765625 0.171875 3.160156 0.078125 2.640625 -0.109375 C 2.128906 -0.304688 1.695312 -0.566406 1.34375 -0.890625 C 1 -1.222656 0.742188 -1.597656 0.578125 -2.015625 C 0.410156 -2.429688 0.328125 -2.863281 0.328125 -3.3125 Z M 0.328125 -3.3125 "/></g></g></g><g fill="#042d62" fill-opacity="1"><g transform="translate(103.240805, 10.194462)"><g><path d="M 3.484375 -8.9375 L 3.484375 -1.34375 C 3.484375 -1.039062 3.539062 -0.800781 3.65625 -0.625 C 3.78125 -0.445312 3.972656 -0.347656 4.234375 -0.328125 L 4.234375 0 L 0.28125 0 L 0.28125 -0.328125 C 0.53125 -0.347656 0.710938 -0.445312 0.828125 -0.625 C 0.941406 -0.800781 1 -1.039062 1 -1.34375 L 1 -7.40625 C 1 -8.0625 0.757812 -8.398438 0.28125 -8.421875 L 0.28125 -8.765625 Z M 3.484375 -8.9375 "/></g></g></g><g fill="#042d62" fill-opacity="1"><g transform="translate(107.744753, 10.194462)"><g><path d="M 3.484375 -8.9375 L 3.484375 -1.34375 C 3.484375 -1.039062 3.539062 -0.800781 3.65625 -0.625 C 3.78125 -0.445312 3.972656 -0.347656 4.234375 -0.328125 L 4.234375 0 L 0.28125 0 L 0.28125 -0.328125 C 0.53125 -0.347656 0.710938 -0.445312 0.828125 -0.625 C 0.941406 -0.800781 1 -1.039062 1 -1.34375 L 1 -7.40625 C 1 -8.0625 0.757812 -8.398438 0.28125 -8.421875 L 0.28125 -8.765625 Z M 3.484375 -8.9375 "/></g></g></g><g fill="#042d62" fill-opacity="1"><g transform="translate(112.248701, 10.194462)"><g/></g></g><g fill="#042d62" fill-opacity="1"><g transform="translate(116.752649, 10.194462)"><g><path d="M 4.609375 -8.71875 L 4.609375 -8.390625 C 4.546875 -8.367188 4.476562 -8.332031 4.40625 -8.28125 C 4.34375 -8.238281 4.3125 -8.164062 4.3125 -8.0625 C 4.3125 -8 4.320312 -7.921875 4.34375 -7.828125 C 4.363281 -7.734375 4.421875 -7.582031 4.515625 -7.375 L 5.3125 -5.578125 L 6.265625 -7.453125 C 6.378906 -7.679688 6.441406 -7.835938 6.453125 -7.921875 C 6.472656 -8.015625 6.484375 -8.0625 6.484375 -8.0625 C 6.484375 -8.226562 6.40625 -8.335938 6.25 -8.390625 L 6.25 -8.71875 L 10.453125 -8.71875 L 10.453125 -8.390625 C 10.359375 -8.390625 10.269531 -8.375 10.1875 -8.34375 C 10.101562 -8.320312 10.023438 -8.265625 9.953125 -8.171875 C 9.878906 -8.085938 9.820312 -7.960938 9.78125 -7.796875 C 9.738281 -7.628906 9.71875 -7.40625 9.71875 -7.125 L 9.71875 -1.59375 C 9.71875 -1.3125 9.738281 -1.085938 9.78125 -0.921875 C 9.832031 -0.753906 9.890625 -0.625 9.953125 -0.53125 C 10.023438 -0.445312 10.101562 -0.390625 10.1875 -0.359375 C 10.28125 -0.335938 10.367188 -0.328125 10.453125 -0.328125 L 10.453125 0 L 6.25 0 L 6.25 -0.328125 C 6.34375 -0.328125 6.429688 -0.335938 6.515625 -0.359375 C 6.609375 -0.390625 6.6875 -0.445312 6.75 -0.53125 C 6.820312 -0.613281 6.882812 -0.738281 6.9375 -0.90625 C 6.988281 -1.082031 7.015625 -1.3125 7.015625 -1.59375 L 7.015625 -6.953125 L 4.46875 -1.734375 L 1.96875 -6.953125 L 1.96875 -1.65625 C 1.96875 -1.375 1.988281 -1.144531 2.03125 -0.96875 C 2.082031 -0.800781 2.140625 -0.671875 2.203125 -0.578125 C 2.273438 -0.484375 2.359375 -0.414062 2.453125 -0.375 C 2.554688 -0.34375 2.660156 -0.328125 2.765625 -0.328125 L 2.765625 0 L 0.140625 0 L 0.140625 -0.328125 C 0.242188 -0.328125 0.335938 -0.34375 0.421875 -0.375 C 0.515625 -0.40625 0.585938 -0.460938 0.640625 -0.546875 C 0.703125 -0.640625 0.75 -0.765625 0.78125 -0.921875 C 0.820312 -1.085938 0.84375 -1.304688 0.84375 -1.578125 L 0.84375 -7.140625 C 0.84375 -7.410156 0.820312 -7.625 0.78125 -7.78125 C 0.75 -7.945312 0.703125 -8.070312 0.640625 -8.15625 C 0.578125 -8.25 0.503906 -8.3125 0.421875 -8.34375 C 0.335938 -8.375 0.242188 -8.390625 0.140625 -8.390625 L 0.140625 -8.71875 Z M 4.609375 -8.71875 "/></g></g></g><g fill="#042d62" fill-opacity="1"><g transform="translate(127.350175, 10.194462)"><g><path d="M 4.3125 -5.703125 C 4.070312 -5.703125 3.867188 -5.632812 3.703125 -5.5 C 3.546875 -5.363281 3.421875 -5.1875 3.328125 -4.96875 C 3.234375 -4.757812 3.164062 -4.523438 3.125 -4.265625 C 3.082031 -4.015625 3.0625 -3.769531 3.0625 -3.53125 C 3.0625 -3.300781 3.082031 -3.03125 3.125 -2.71875 C 3.164062 -2.414062 3.238281 -2.125 3.34375 -1.84375 C 3.457031 -1.570312 3.601562 -1.335938 3.78125 -1.140625 C 3.96875 -0.941406 4.207031 -0.84375 4.5 -0.84375 C 4.75 -0.84375 4.945312 -0.925781 5.09375 -1.09375 C 5.25 -1.257812 5.367188 -1.460938 5.453125 -1.703125 C 5.546875 -1.941406 5.609375 -2.1875 5.640625 -2.4375 C 5.671875 -2.695312 5.6875 -2.910156 5.6875 -3.078125 C 5.6875 -3.273438 5.671875 -3.519531 5.640625 -3.8125 C 5.609375 -4.113281 5.539062 -4.398438 5.4375 -4.671875 C 5.34375 -4.953125 5.203125 -5.191406 5.015625 -5.390625 C 4.835938 -5.597656 4.601562 -5.703125 4.3125 -5.703125 Z M 0.40625 -3.109375 C 0.40625 -3.691406 0.519531 -4.207031 0.75 -4.65625 C 0.976562 -5.113281 1.28125 -5.488281 1.65625 -5.78125 C 2.03125 -6.082031 2.460938 -6.3125 2.953125 -6.46875 C 3.441406 -6.625 3.953125 -6.703125 4.484375 -6.703125 C 5.003906 -6.703125 5.5 -6.628906 5.96875 -6.484375 C 6.4375 -6.347656 6.84375 -6.132812 7.1875 -5.84375 C 7.539062 -5.5625 7.816406 -5.203125 8.015625 -4.765625 C 8.222656 -4.335938 8.328125 -3.832031 8.328125 -3.25 C 8.328125 -2.675781 8.21875 -2.171875 8 -1.734375 C 7.78125 -1.304688 7.484375 -0.953125 7.109375 -0.671875 C 6.742188 -0.390625 6.320312 -0.175781 5.84375 -0.03125 C 5.363281 0.101562 4.867188 0.171875 4.359375 0.171875 C 3.628906 0.171875 2.972656 0.0664062 2.390625 -0.140625 C 1.816406 -0.359375 1.378906 -0.660156 1.078125 -1.046875 C 0.867188 -1.304688 0.703125 -1.609375 0.578125 -1.953125 C 0.460938 -2.304688 0.40625 -2.691406 0.40625 -3.109375 Z M 0.40625 -3.109375 "/></g></g></g><g fill="#042d62" fill-opacity="1"><g transform="translate(136.093132, 10.194462)"><g><path d="M 3.28125 -5.171875 C 3.363281 -5.359375 3.476562 -5.539062 3.625 -5.71875 C 3.78125 -5.894531 3.945312 -6.050781 4.125 -6.1875 C 4.3125 -6.332031 4.507812 -6.445312 4.71875 -6.53125 C 4.9375 -6.613281 5.148438 -6.65625 5.359375 -6.65625 C 5.429688 -6.65625 5.519531 -6.648438 5.625 -6.640625 C 5.738281 -6.628906 5.867188 -6.601562 6.015625 -6.5625 L 5.546875 -4.75 C 5.410156 -4.875 5.265625 -4.96875 5.109375 -5.03125 C 4.960938 -5.09375 4.785156 -5.125 4.578125 -5.125 C 4.398438 -5.125 4.21875 -5.078125 4.03125 -4.984375 C 3.84375 -4.890625 3.675781 -4.722656 3.53125 -4.484375 C 3.476562 -4.410156 3.4375 -4.34375 3.40625 -4.28125 C 3.375 -4.226562 3.347656 -4.15625 3.328125 -4.0625 C 3.316406 -3.976562 3.304688 -3.867188 3.296875 -3.734375 C 3.285156 -3.609375 3.28125 -3.4375 3.28125 -3.21875 L 3.28125 -1.34375 C 3.28125 -1.28125 3.289062 -1.191406 3.3125 -1.078125 C 3.332031 -0.960938 3.367188 -0.847656 3.421875 -0.734375 C 3.472656 -0.628906 3.546875 -0.535156 3.640625 -0.453125 C 3.742188 -0.378906 3.878906 -0.335938 4.046875 -0.328125 L 4.0625 -0.328125 L 4.0625 0 L 0.078125 0 L 0.078125 -0.328125 L 0.09375 -0.328125 C 0.25 -0.335938 0.375 -0.378906 0.46875 -0.453125 C 0.5625 -0.535156 0.628906 -0.628906 0.671875 -0.734375 C 0.722656 -0.847656 0.757812 -0.960938 0.78125 -1.078125 C 0.800781 -1.191406 0.8125 -1.285156 0.8125 -1.359375 L 0.8125 -5.09375 C 0.8125 -5.757812 0.566406 -6.101562 0.078125 -6.125 L 0.078125 -6.453125 L 2.890625 -6.640625 C 3.035156 -6.429688 3.132812 -6.203125 3.1875 -5.953125 C 3.238281 -5.703125 3.269531 -5.441406 3.28125 -5.171875 Z M 3.28125 -5.171875 "/></g></g></g><g fill="#042d62" fill-opacity="1"><g transform="translate(141.789246, 10.194462)"><g><path d="M 4.125 -5.6875 C 3.90625 -5.6875 3.722656 -5.625 3.578125 -5.5 C 3.429688 -5.375 3.3125 -5.21875 3.21875 -5.03125 C 3.132812 -4.851562 3.070312 -4.660156 3.03125 -4.453125 C 3 -4.242188 2.984375 -4.054688 2.984375 -3.890625 L 5.171875 -4.328125 C 5.179688 -4.546875 5.160156 -4.738281 5.109375 -4.90625 C 5.066406 -5.070312 4.992188 -5.210938 4.890625 -5.328125 C 4.796875 -5.441406 4.679688 -5.53125 4.546875 -5.59375 C 4.410156 -5.65625 4.269531 -5.6875 4.125 -5.6875 Z M 0.328125 -3.3125 C 0.328125 -3.863281 0.4375 -4.351562 0.65625 -4.78125 C 0.882812 -5.207031 1.175781 -5.5625 1.53125 -5.84375 C 1.894531 -6.132812 2.316406 -6.347656 2.796875 -6.484375 C 3.273438 -6.628906 3.773438 -6.703125 4.296875 -6.703125 C 4.742188 -6.703125 5.160156 -6.648438 5.546875 -6.546875 C 5.941406 -6.441406 6.296875 -6.273438 6.609375 -6.046875 C 6.929688 -5.828125 7.195312 -5.550781 7.40625 -5.21875 C 7.613281 -4.894531 7.753906 -4.503906 7.828125 -4.046875 L 3.0625 -3.09375 C 3.09375 -2.800781 3.15625 -2.523438 3.25 -2.265625 C 3.351562 -2.003906 3.488281 -1.773438 3.65625 -1.578125 C 3.820312 -1.378906 4.019531 -1.21875 4.25 -1.09375 C 4.488281 -0.976562 4.765625 -0.921875 5.078125 -0.921875 C 5.578125 -0.921875 6.03125 -1.0625 6.4375 -1.34375 C 6.851562 -1.625 7.171875 -2.015625 7.390625 -2.515625 L 7.671875 -2.40625 L 6.84375 0.125 C 6.78125 0.0703125 6.710938 0.03125 6.640625 0 C 6.566406 -0.03125 6.476562 -0.046875 6.375 -0.046875 C 6.257812 -0.046875 6.078125 -0.0195312 5.828125 0.03125 C 5.617188 0.0625 5.398438 0.09375 5.171875 0.125 C 4.941406 0.15625 4.703125 0.171875 4.453125 0.171875 C 3.765625 0.171875 3.160156 0.078125 2.640625 -0.109375 C 2.128906 -0.304688 1.695312 -0.566406 1.34375 -0.890625 C 1 -1.222656 0.742188 -1.597656 0.578125 -2.015625 C 0.410156 -2.429688 0.328125 -2.863281 0.328125 -3.3125 Z M 0.328125 -3.3125 "/></g></g></g></g></g></svg>
