<svg xmlns="http://www.w3.org/2000/svg" viewBox="0 0 640 150" role="img" aria-labelledby="elishipLogoTitle elishipLogoDesc">
  <title id="elishipLogoTitle">EliShip Logo</title>
  <desc id="elishipLogoDesc">Custom EliShip brand logo with icon and wordmark.</desc>
  <defs>
    <linearGradient id="elishipTile" x1="0" y1="0" x2="1" y2="1">
      <stop offset="0%" stop-color="#f4fbff"/>
      <stop offset="100%" stop-color="#e8f7ef"/>
    </linearGradient>
  </defs>

  <g transform="translate(16 10)">
    <rect x="0" y="0" width="128" height="128" rx="28" fill="url(#elishipTile)" stroke="#d4e5f2" stroke-width="2"/>

    <path d="M27 28H89C98 28 106 36 106 45C106 54 98 62 89 62H53V73H84C93 73 101 81 101 90C101 99 93 107 84 107H27V28Z" fill="#0b3f7a"/>
    <path d="M80 28L113 68L80 107H58L89 68L58 28H80Z" fill="#17b67f"/>
    <path d="M27 45H95" stroke="#ffffff" stroke-width="6" stroke-linecap="round"/>
    <path d="M27 90H85" stroke="#ffffff" stroke-width="6" stroke-linecap="round"/>
  </g>

  <g transform="translate(165 48)">
    <text x="0" y="28" font-size="54" font-weight="800" font-family="Segoe UI, Arial, sans-serif" letter-spacing="0.4">
      <tspan fill="#0b3f7a">Eli</tspan><tspan fill="#17b67f">Ship</tspan>
    </text>
    <text x="2" y="62" font-size="28" font-weight="800" fill="#2a4d68" font-family="Segoe UI, Arial, sans-serif" letter-spacing="0.3">
      Ship Smart, Sell More
    </text>
  </g>
</svg>
