<svg xmlns="http://www.w3.org/2000/svg" xmlns:xlink="http://www.w3.org/1999/xlink" width="50" zoomAndPan="magnify" viewBox="0 0 37.5 37.499999" height="50" preserveAspectRatio="xMidYMid meet" version="1.0"><defs><clipPath id="965542f6e9"><path d="M 2.628906 10 L 29 10 L 29 32.71875 L 2.628906 32.71875 Z M 2.628906 10 " clip-rule="nonzero"/></clipPath><clipPath id="3de71e7bfe"><path d="M 7 4.59375 L 16 4.59375 L 16 9 L 7 9 Z M 7 4.59375 " clip-rule="nonzero"/></clipPath><clipPath id="aa5a5008e6"><path d="M 11 4.59375 L 34.453125 4.59375 L 34.453125 32.71875 L 11 32.71875 Z M 11 4.59375 " clip-rule="nonzero"/></clipPath></defs><g clip-path="url(#965542f6e9)"><path fill="#042d62" d="M 28.351562 14.703125 L 21.5625 10.78125 L 21.5625 12.632812 L 9.851562 12.632812 L 2.628906 32.390625 L 7.035156 32.390625 L 12.742188 16.773438 L 21.5625 16.773438 L 21.5625 18.625 Z M 28.351562 14.703125 " fill-opacity="1" fill-rule="nonzero"/></g><g clip-path="url(#3de71e7bfe)"><path fill="#c5202b" d="M 15.207031 4.605469 L 9.238281 4.605469 L 7.726562 8.746094 L 13.695312 8.746094 Z M 15.207031 4.605469 " fill-opacity="1" fill-rule="nonzero"/></g><g clip-path="url(#aa5a5008e6)"><path fill="#c5202b" d="M 24.277344 20.660156 L 15.300781 20.660156 L 11.015625 32.390625 L 15.421875 32.390625 L 18.195312 24.800781 L 24.277344 24.800781 C 29.847656 24.800781 34.375 20.269531 34.375 14.703125 C 34.375 9.136719 29.847656 4.605469 24.277344 4.605469 L 17.363281 4.605469 L 15.851562 8.746094 L 24.277344 8.746094 C 27.566406 8.746094 30.238281 11.417969 30.238281 14.703125 C 30.238281 17.988281 27.566406 20.660156 24.277344 20.660156 Z M 24.277344 20.660156 " fill-opacity="1" fill-rule="nonzero"/></g></svg>