<svg xmlns="http://www.w3.org/2000/svg" viewBox="0 0 96 96" role="img" aria-label="Binance">
  <g fill="#F3BA2F">
    <rect x="41" y="9" width="14" height="14" rx="2" transform="rotate(45 48 16)"/>
    <rect x="18" y="32" width="14" height="14" rx="2" transform="rotate(45 25 39)"/>
    <rect x="41" y="32" width="14" height="14" rx="2" transform="rotate(45 48 39)"/>
    <rect x="64" y="32" width="14" height="14" rx="2" transform="rotate(45 71 39)"/>
    <rect x="30" y="44" width="14" height="14" rx="2" transform="rotate(45 37 51)"/>
    <rect x="52" y="44" width="14" height="14" rx="2" transform="rotate(45 59 51)"/>
    <rect x="41" y="55" width="14" height="14" rx="2" transform="rotate(45 48 62)"/>
    <rect x="41" y="44" width="14" height="14" rx="2" transform="rotate(45 48 51)"/>
  </g>
</svg>
