<svg xmlns="http://www.w3.org/2000/svg" width="300" height="100" viewBox="45 130 300 120" preserveAspectRatio="xMidYMid meet">
  <!-- Symbol Blue Part -->
  <path fill="#042d62" d="M 151.546875 180.183594 C 149.769531 182.640625 147.925781 185.03125 146.011719 187.355469 C 146.558594 189.609375 145.945312 192.066406 144.238281 193.777344 L 102.359375 235.652344 C 99.765625 238.25 95.460938 238.25 92.867188 235.652344 L 80.226562 223.082031 C 78.382812 222.261719 76.742188 221.375 75.515625 220.488281 C 76.675781 221.03125 77.835938 221.511719 79.132812 221.921875 C 80.636719 222.398438 82.277344 222.742188 83.847656 222.878906 C 86.648438 223.21875 89.585938 223.082031 92.457031 222.398438 C 114.042969 217.414062 131.734375 201.496094 144.511719 187.902344 L 144.578125 187.832031 C 144.988281 187.355469 145.398438 186.945312 145.808594 186.535156 C 147.789062 184.28125 149.769531 182.164062 151.546875 180.183594 "/>
  <!-- Symbol White Parts -->
  <path fill="#ffffff" d="M 151.273438 179.363281 C 147.378906 182.710938 142.394531 186.535156 136.996094 190.222656 L 136.929688 190.222656 L 136.996094 190.222656 C 117.59375 203.410156 91.703125 215.910156 82.003906 208.257812 C 79.40625 206.210938 80.363281 202.109375 83.574219 201.425781 C 84.121094 201.289062 84.667969 201.222656 85.144531 201.085938 C 98.742188 198.011719 108.917969 191.042969 106.1875 179.089844 C 103.933594 169.183594 94.503906 164.878906 82.753906 167.613281 C 79.679688 168.296875 76.742188 169.523438 74.078125 171.234375 C 71.550781 172.871094 69.296875 174.921875 67.453125 177.246094 C 65.609375 179.566406 64.175781 182.230469 63.082031 185.03125 C 61.988281 187.902344 61.375 190.90625 61.167969 193.980469 C 61.167969 194.460938 61.101562 194.871094 61.101562 195.347656 C 61.03125 198.558594 61.375 201.835938 62.191406 204.910156 C 62.945312 207.574219 64.105469 210.101562 65.675781 212.289062 C 63.558594 209.691406 62.125 206.824219 61.03125 203.816406 L 51.058594 193.777344 C 48.460938 191.179688 48.460938 186.875 51.058594 184.210938 L 92.933594 142.335938 C 95.53125 139.742188 99.832031 139.742188 102.429688 142.335938 L 121.96875 161.875 C 124.425781 164.332031 125.179688 168.023438 123.8125 171.234375 C 121.421875 176.972656 117.320312 183.664062 111.652344 191.179688 C 118.347656 185.578125 124.496094 178.472656 130.027344 170.003906 L 133.375 173.351562 C 129.070312 182.09375 118.757812 191.933594 102.769531 202.726562 C 114.316406 198.421875 125.65625 191.660156 136.929688 182.640625 C 138.773438 181.207031 141.4375 181.34375 143.074219 182.984375 L 144.03125 183.9375 C 146.285156 182.777344 148.8125 181.136719 151.273438 179.363281 "/>
  <path fill="#ffffff" d="M 76.46875 188.652344 C 76.742188 186.125 79.542969 179.15625 84.601562 177.996094 C 87.46875 177.3125 90.269531 178.40625 90.882812 181 C 91.773438 184.757812 87.605469 187.21875 83.78125 188.039062 C 80.980469 188.722656 78.179688 188.996094 76.46875 188.652344 Z"/>

  <!-- Text "Easy" -->
  <g fill="#042d62" transform="translate(156.9, 183.75)">
    <path d="M 3.98 -39.78 L 30.97 -39.78 L 30.97 -32.11 L 12.5 -32.11 L 12.5 -23.58 L 29.83 -23.58 L 29.83 -16.48 L 12.5 -16.48 L 12.5 -7.67 L 31.55 -7.67 L 31.55 0 L 3.98 0 Z"/>
    <path transform="translate(34, 0)" d="M 12.22 0.56 C 10.59 0.56 9.13 0.33 7.81 -0.14 C 6.51 -0.62 5.4 -1.27 4.48 -2.11 C 3.58 -2.94 2.88 -3.93 2.41 -5.06 C 1.94 -6.2 1.7 -7.45 1.7 -8.81 C 1.7 -10.18 1.95 -11.43 2.44 -12.56 C 2.94 -13.7 3.68 -14.68 4.66 -15.52 C 5.64 -16.35 6.86 -17 8.3 -17.47 C 9.73 -17.95 11.42 -18.19 13.36 -18.19 L 20.45 -18.19 L 20.45 -19.61 C 20.45 -21.05 20 -22.11 19.09 -22.81 C 18.19 -23.52 16.94 -23.88 15.34 -23.88 C 14.21 -23.88 13.24 -23.63 12.44 -23.13 C 11.64 -22.63 11.1 -22.03 10.8 -21.31 L 2.84 -21.31 C 3.1 -22.52 3.57 -23.68 4.23 -24.8 C 4.9 -25.92 5.75 -26.91 6.8 -27.78 C 7.84 -28.66 9.09 -29.36 10.55 -29.89 C 12 -30.42 13.7 -30.69 15.63 -30.69 C 19.64 -30.69 22.78 -29.72 25.03 -27.78 C 27.28 -25.85 28.41 -23.04 28.41 -19.33 L 28.41 0 L 21.59 0 L 20.75 -3.41 L 20.45 -3.41 C 20.15 -2.99 19.77 -2.54 19.31 -2.06 C 18.86 -1.59 18.3 -1.16 17.61 -0.77 C 16.93 -0.37 16.14 -0.05 15.25 0.19 C 14.36 0.44 13.35 0.56 12.22 0.56 Z M 14.2 -5.97 C 16.05 -5.97 17.56 -6.49 18.72 -7.53 C 19.88 -8.57 20.45 -9.95 20.45 -11.66 L 20.45 -12.5 L 13.64 -12.5 C 12.2 -12.5 11.18 -12.2 10.56 -11.59 C 9.96 -10.99 9.66 -10.25 9.66 -9.38 C 9.66 -8.39 10.02 -7.58 10.73 -6.94 C 11.45 -6.29 12.61 -5.97 14.2 -5.97 Z"/>
    <path transform="translate(65, 0)" d="M 14.48 0.56 C 12.29 0.56 10.39 0.3 8.8 -0.22 C 7.21 -0.75 5.89 -1.47 4.83 -2.38 C 3.77 -3.29 2.94 -4.34 2.36 -5.53 C 1.77 -6.73 1.37 -8.01 1.14 -9.38 L 9.66 -9.38 C 9.81 -8.66 10.3 -8 11.11 -7.41 C 11.92 -6.82 13.05 -6.53 14.48 -6.53 C 16.46 -6.53 17.81 -6.77 18.53 -7.23 C 19.25 -7.71 19.61 -8.24 19.61 -8.81 C 19.61 -9.56 19.18 -10.11 18.33 -10.45 C 17.47 -10.8 16.4 -11.1 15.11 -11.36 C 13.83 -11.63 12.44 -11.91 10.94 -12.22 C 9.44 -12.52 8.04 -13.02 6.75 -13.72 C 5.47 -14.43 4.4 -15.39 3.55 -16.63 C 2.69 -17.85 2.27 -19.51 2.27 -21.59 C 2.27 -22.88 2.53 -24.08 3.06 -25.17 C 3.59 -26.27 4.37 -27.23 5.39 -28.05 C 6.42 -28.86 7.69 -29.5 9.2 -29.97 C 10.72 -30.45 12.48 -30.69 14.48 -30.69 C 16.61 -30.69 18.45 -30.44 20 -29.94 C 21.55 -29.45 22.85 -28.77 23.89 -27.92 C 24.93 -27.08 25.74 -26.09 26.33 -24.95 C 26.92 -23.82 27.33 -22.6 27.56 -21.31 L 19.03 -21.31 C 18.88 -21.88 18.49 -22.39 17.84 -22.86 C 17.2 -23.34 16.08 -23.58 14.48 -23.58 C 13.2 -23.58 12.22 -23.39 11.53 -23.02 C 10.85 -22.64 10.52 -22.16 10.52 -21.59 C 10.52 -20.83 10.94 -20.28 11.8 -19.94 C 12.65 -19.6 13.72 -19.3 15 -19.03 C 16.29 -18.77 17.68 -18.49 19.17 -18.19 C 20.67 -17.88 22.06 -17.38 23.34 -16.67 C 24.63 -15.97 25.71 -15.01 26.56 -13.78 C 27.41 -12.55 27.84 -10.89 27.84 -8.81 C 27.84 -7.59 27.63 -6.43 27.19 -5.31 C 26.75 -4.2 26.02 -3.2 25 -2.33 C 23.98 -1.45 22.6 -0.75 20.88 -0.22 C 19.16 0.3 17.02 0.56 14.48 0.56 Z"/>
    <path transform="translate(95, 0)" d="M 11.98 0 L -0.28 -30.13 L 8.53 -30.13 L 15.91 -10.52 L 16.14 -10.52 L 23.3 -30.13 L 32.11 -30.13 L 15.63 11.36 L 7.39 11.36 Z"/>
  </g>

  <!-- Text "Finora" -->
  <g fill="#ffffff" transform="translate(156.9, 233.25)">
    <path d="M 3.98 -39.78 L 30.97 -39.78 L 30.97 -32.11 L 12.5 -32.11 L 12.5 -22.73 L 29.55 -22.73 L 29.55 -15.06 L 12.5 -15.06 L 12.5 0 L 3.98 0 Z"/>
    <path transform="translate(33, 0)" d="M 3.41 -30.13 L 11.36 -30.13 L 11.36 0 L 3.41 0 Z M 7.39 -33.25 C 6.1 -33.25 5.02 -33.68 4.14 -34.55 C 3.27 -35.42 2.84 -36.5 2.84 -37.8 C 2.84 -39.08 3.27 -40.16 4.14 -41.03 C 5.02 -41.91 6.1 -42.34 7.39 -42.34 C 8.67 -42.34 9.75 -41.91 10.63 -41.03 C 11.5 -40.16 11.94 -39.08 11.94 -37.8 C 11.94 -36.5 11.5 -35.42 10.63 -34.55 C 9.75 -33.68 8.67 -33.25 7.39 -33.25 Z"/>
    <path transform="translate(48, 0)" d="M 3.41 -30.13 L 10.23 -30.13 L 11.08 -26.7 L 11.36 -26.7 C 12.35 -27.99 13.52 -28.98 14.89 -29.66 C 16.25 -30.34 17.73 -30.69 19.33 -30.69 C 20.95 -30.69 22.45 -30.41 23.81 -29.86 C 25.18 -29.32 26.34 -28.52 27.3 -27.45 C 28.27 -26.39 29.02 -25.11 29.58 -23.61 C 30.13 -22.12 30.41 -20.41 30.41 -18.47 L 30.41 0 L 22.45 0 L 22.45 -17.33 C 22.45 -19.34 21.98 -20.88 21.03 -21.95 C 20.08 -23.04 18.75 -23.58 17.05 -23.58 C 15.34 -23.58 13.96 -23 12.92 -21.84 C 11.88 -20.69 11.36 -19.18 11.36 -17.33 L 11.36 0 L 3.41 0 Z"/>
    <path transform="translate(82, 0)" d="M 16.77 0.56 C 14.49 0.56 12.45 0.21 10.63 -0.48 C 8.81 -1.18 7.26 -2.19 5.97 -3.52 C 4.68 -4.85 3.69 -6.48 3 -8.41 C 2.32 -10.34 1.98 -12.56 1.98 -15.06 C 1.98 -17.56 2.32 -19.77 3 -21.7 C 3.69 -23.64 4.68 -25.27 5.97 -26.59 C 7.26 -27.91 8.81 -28.93 10.63 -29.63 C 12.45 -30.33 14.49 -30.69 16.77 -30.69 C 19.04 -30.69 21.08 -30.33 22.89 -29.63 C 24.71 -28.93 26.27 -27.91 27.56 -26.59 C 28.85 -25.27 29.84 -23.64 30.52 -21.7 C 31.2 -19.77 31.55 -17.56 31.55 -15.06 C 31.55 -12.56 31.2 -10.34 30.52 -8.41 C 29.84 -6.48 28.85 -4.85 27.56 -3.52 C 26.27 -2.19 24.71 -1.18 22.89 -0.48 C 21.08 0.21 19.04 0.56 16.77 0.56 Z M 16.77 -6.53 C 17.67 -6.53 18.54 -6.69 19.38 -7.02 C 20.21 -7.34 20.94 -7.85 21.56 -8.55 C 22.19 -9.25 22.68 -10.14 23.03 -11.22 C 23.39 -12.3 23.58 -13.58 23.58 -15.06 C 23.58 -16.54 23.39 -17.82 23.03 -18.89 C 22.68 -19.97 22.19 -20.86 21.56 -21.56 C 20.94 -22.27 20.21 -22.78 19.38 -23.09 C 18.54 -23.41 17.67 -23.58 16.77 -23.58 C 15.86 -23.58 14.99 -23.41 14.16 -23.09 C 13.32 -22.78 12.59 -22.27 11.97 -21.56 C 11.34 -20.86 10.85 -19.97 10.48 -18.89 C 10.12 -17.82 9.94 -16.54 9.94 -15.06 C 9.94 -13.58 10.12 -12.3 10.48 -11.22 C 10.85 -10.14 11.34 -9.25 11.97 -8.55 C 12.59 -7.85 13.32 -7.34 14.16 -7.02 C 14.99 -6.69 15.86 -6.53 16.77 -6.53 Z"/>
    <path transform="translate(115, 0)" d="M 3.41 -30.13 L 10.23 -30.13 L 11.08 -26.7 L 11.36 -26.7 C 12.23 -27.99 13.27 -28.88 14.48 -29.38 C 15.7 -29.88 17.03 -30.13 18.47 -30.13 L 22.16 -30.13 L 22.16 -22.45 L 19.03 -22.45 C 16.61 -22.45 14.73 -21.79 13.38 -20.45 C 12.03 -19.13 11.36 -17.33 11.36 -15.06 L 11.36 0 L 3.41 0 Z"/>
    <path transform="translate(138, 0)" d="M 12.22 0.56 C 10.59 0.56 9.13 0.33 7.81 -0.14 C 6.51 -0.62 5.4 -1.27 4.48 -2.11 C 3.58 -2.94 2.88 -3.93 2.41 -5.06 C 1.94 -6.2 1.7 -7.45 1.7 -8.81 C 1.7 -10.18 1.95 -11.43 2.44 -12.56 C 2.94 -13.7 3.68 -14.68 4.66 -15.52 C 5.64 -16.35 6.86 -17 8.3 -17.47 C 9.73 -17.95 11.42 -18.19 13.36 -18.19 L 20.45 -18.19 L 20.45 -19.61 C 20.45 -21.05 20 -22.11 19.09 -22.81 C 18.19 -23.52 16.94 -23.88 15.34 -23.88 C 14.21 -23.88 13.24 -23.63 12.43 -23.13 C 11.64 -22.63 11.1 -22.03 10.8 -21.31 L 2.84 -21.31 C 3.1 -22.52 3.57 -23.68 4.23 -24.8 C 4.9 -25.92 5.75 -26.91 6.8 -27.78 C 7.84 -28.66 9.09 -29.36 10.55 -29.89 C 12 -30.42 13.7 -30.69 15.63 -30.69 C 19.64 -30.69 22.78 -29.72 25.03 -27.78 C 27.28 -25.85 28.41 -23.04 28.41 -19.33 L 28.41 0 L 21.59 0 L 20.75 -3.41 L 20.45 -3.41 C 20.15 -2.99 19.77 -2.54 19.31 -2.06 C 18.86 -1.59 18.3 -1.16 17.61 -0.77 C 16.93 -0.37 16.14 -0.05 15.25 0.19 C 14.36 0.44 13.35 0.56 12.22 0.56 Z M 14.2 -5.97 C 16.05 -5.97 17.56 -6.49 18.72 -7.53 C 19.88 -8.57 20.45 -9.95 20.45 -11.66 L 20.45 -12.5 L 13.64 -12.5 C 12.2 -12.5 11.18 -12.2 10.56 -11.59 C 9.96 -10.99 9.66 -10.25 9.66 -9.38 C 9.66 -8.39 10.02 -7.58 10.73 -6.94 C 11.45 -6.29 12.61 -5.97 14.2 -5.97 Z"/>
  </g>
</svg>